<?xml version="1.0" encoding="UTF-8"?>
<svg id="Layer_1" data-name="Layer 1" xmlns="http://www.w3.org/2000/svg" viewBox="0 0 934 155">
  <defs>
    <style>
      .cls-1 {
        fill: #004cbe;
      }

      .cls-2 {
        fill: #ff9c00;
      }
    </style>
  </defs>
  <polygon class="cls-2" points="911.46 154.99 914.34 140.18 3.44 140.18 .56 154.99 911.46 154.99"/>
  <g>
    <polygon class="cls-1" points="50.43 28.77 96.05 28.77 100.43 6.55 54.74 6.55 42.23 6.55 29.4 6.55 8.12 116.08 33.46 116.08 41.43 75.09 80.41 75.09 84.79 52.87 45.75 52.87 50.43 28.77"/>
    <path class="cls-1" d="M126.56,85.41c12.52,0,21.83-2.66,27.93-7.98,6.1-5.32,9.15-12.05,9.15-20.18,0-6.88-2.61-12.67-7.82-17.37-5.22-4.69-12.47-7.04-21.75-7.04-6.26,0-12.13,1.23-17.6,3.68-5.48,2.45-10.28,5.87-14.4,10.25-4.12,4.38-7.35,9.52-9.7,15.41-2.35,5.89-3.52,12.28-3.52,19.17,0,7.62,1.64,14.16,4.93,19.64,3.29,5.48,7.72,9.68,13.3,12.6,5.58,2.92,11.86,4.38,18.85,4.38,5.11,0,9.86-.42,14.24-1.25,4.38-.83,8.24-1.93,11.58-3.29l4.07-20.97c-4.17,1.67-8.06,2.92-11.66,3.76-3.6.84-7.22,1.25-10.87,1.25-7.41,0-12.6-1.22-15.57-3.68-2.34-1.93-3.74-5.14-4.24-9.62,1.28.23,2.58.44,3.93.62,3.18.42,6.23.63,9.15.63ZM123.36,54.36c3.08-2.45,6.39-3.68,9.94-3.68,2.4,0,4.3.65,5.71,1.96,1.41,1.31,2.11,3,2.11,5.09,0,3.13-1.31,5.63-3.91,7.51-2.61,1.88-6.26,2.82-10.95,2.82-2.82,0-5.71-.16-8.68-.47-.82-.09-1.65-.19-2.49-.31.28-.89.58-1.75.92-2.58,1.82-4.43,4.28-7.87,7.35-10.33Z"/>
    <path class="cls-1" d="M237.34.29l-6.91,35.46c-1.69-.6-3.48-1.13-5.37-1.59-3.7-.89-7.54-1.33-11.5-1.33-8.76,0-16.56,2.17-23.39,6.49-6.83,4.33-12.2,10.28-16.12,17.84-3.91,7.56-5.87,16.19-5.87,25.9,0,7.41,1.33,13.72,3.99,18.93,2.66,5.22,6.21,9.18,10.64,11.89,4.43,2.71,9.36,4.07,14.79,4.07,4.69,0,9.02-1.2,12.99-3.6,3.43-2.08,6.51-5.31,9.24-9.69l-2.2,11.42h22.22L262.38.29h-25.04ZM216.3,92.77c-2.45,2.09-5.35,3.13-8.68,3.13h-1.88c-3.55,0-6.47-1.12-8.76-3.36-2.3-2.24-3.44-5.61-3.44-10.09,0-8.97,1.93-15.98,5.79-21.05,3.86-5.06,9.08-7.59,15.65-7.59,2.82,0,5.61.39,8.37,1.17,1.08.31,2.11.71,3.11,1.16l-4.79,24.59c-1.15,5.95-2.94,9.97-5.36,12.03Z"/>
    <path class="cls-1" d="M297.11,85.41c12.52,0,21.83-2.66,27.93-7.98,6.1-5.32,9.15-12.05,9.15-20.18,0-6.88-2.61-12.67-7.82-17.37-5.22-4.69-12.47-7.04-21.75-7.04-6.26,0-12.13,1.23-17.6,3.68-5.48,2.45-10.28,5.87-14.4,10.25-4.12,4.38-7.35,9.52-9.7,15.41-2.35,5.89-3.52,12.28-3.52,19.17,0,7.62,1.64,14.16,4.93,19.64,3.29,5.48,7.72,9.68,13.3,12.6,5.58,2.92,11.86,4.38,18.85,4.38,5.11,0,9.86-.42,14.24-1.25,4.38-.83,8.24-1.93,11.58-3.29l4.07-20.97c-4.17,1.67-8.06,2.92-11.66,3.76-3.6.84-7.22,1.25-10.87,1.25-7.41,0-12.6-1.22-15.57-3.68-2.34-1.93-3.74-5.14-4.24-9.62,1.28.23,2.58.44,3.93.62,3.18.42,6.23.63,9.15.63ZM293.9,54.36c3.08-2.45,6.39-3.68,9.94-3.68,2.4,0,4.3.65,5.71,1.96,1.41,1.31,2.11,3,2.11,5.09,0,3.13-1.31,5.63-3.91,7.51-2.61,1.88-6.26,2.82-10.95,2.82-2.82,0-5.71-.16-8.68-.47-.82-.09-1.65-.19-2.49-.31.28-.89.58-1.75.92-2.58,1.82-4.43,4.28-7.87,7.35-10.33Z"/>
    <path class="cls-1" d="M397.72,33c-.73-.1-1.56-.16-2.5-.16-3.65,0-7.41.99-11.27,2.97-3.86,1.98-7.28,4.83-10.25,8.53-.64.79-1.22,1.63-1.77,2.51l2.32-12.13h-22.69l-15.8,81.36h24.72l9.44-48.39c1.12-4.31,2.64-7.3,4.56-8.96,2.24-1.93,5.45-2.89,9.62-2.89h11.74l4.38-22.38c-.94-.21-1.77-.36-2.5-.47Z"/>
    <path class="cls-1" d="M451.85,34.17c-3.34-.89-7.1-1.33-11.27-1.33-8.55,0-16.19,2.17-22.92,6.49-6.73,4.33-12.02,10.28-15.88,17.84-3.86,7.56-5.79,16.19-5.79,25.9,0,7.41,1.28,13.72,3.83,18.93,2.55,5.22,5.97,9.18,10.25,11.89,4.28,2.71,8.97,4.07,14.08,4.07,4.69,0,9-1.2,12.91-3.6,3.33-2.04,6.31-5.21,8.96-9.47l-2.15,11.19h22.06l15.96-81.99-22.46,2.76c-2.4-1.07-4.92-1.97-7.58-2.68ZM434.17,95.9h-1.88c-3.44,0-6.13-1.12-8.06-3.36-1.93-2.24-2.89-5.61-2.89-10.09,0-8.97,1.85-15.98,5.55-21.05,3.7-5.06,8.74-7.59,15.1-7.59,2.82,0,5.48.39,7.98,1.17.93.29,1.84.67,2.74,1.1l-4.8,24.63c-1.15,5.97-2.88,9.99-5.21,12.06-2.35,2.09-5.19,3.13-8.53,3.13Z"/>
    <polygon class="cls-1" points="482.37 116.08 507.4 116.08 529.93 .29 504.9 .29 482.37 116.08"/>
    <path class="cls-1" d="M652.84,48.88c3.29-4.75,4.93-10.09,4.93-16.04s-1.54-10.72-4.62-14.63c-3.08-3.91-7.17-6.83-12.28-8.76-5.11-1.93-10.69-2.89-16.74-2.89h-41.93l-21.28,109.53h49.44c8.97,0,16.69-1.43,23.16-4.3,6.47-2.87,11.45-6.86,14.94-11.97,3.49-5.11,5.24-10.9,5.24-17.37,0-8.66-3.5-14.94-10.48-18.85-2.01-1.12-4.21-2.08-6.59-2.88.56-.21,1.12-.41,1.66-.64,6.42-2.71,11.27-6.44,14.55-11.19ZM619.59,28.62c8.45,0,12.67,3.18,12.67,9.54,0,3.55-1.28,6.47-3.83,8.76-2.56,2.3-6.39,3.44-11.5,3.44h-18.06l4.23-21.75h16.49ZM624.36,90.5c-2.56,2.35-6.44,3.52-11.66,3.52h-22.31l4.23-21.75h20.75c8.55,0,12.83,3.13,12.83,9.39,0,3.55-1.28,6.49-3.83,8.84Z"/>
    <path class="cls-1" d="M717.69,34.17c-3.34-.89-7.1-1.33-11.27-1.33-8.55,0-16.19,2.17-22.92,6.49-6.73,4.33-12.02,10.28-15.88,17.84-3.86,7.56-5.79,16.19-5.79,25.9,0,7.41,1.28,13.72,3.83,18.93,2.55,5.22,5.97,9.18,10.25,11.89,4.28,2.71,8.97,4.07,14.08,4.07,4.69,0,9-1.2,12.91-3.6,3.33-2.04,6.31-5.21,8.96-9.47l-2.15,11.19h22.06l15.96-81.99-22.46,2.76c-2.4-1.07-4.92-1.97-7.58-2.68ZM700.01,95.9h-1.88c-3.44,0-6.13-1.12-8.06-3.36-1.93-2.24-2.89-5.61-2.89-10.09,0-8.97,1.85-15.98,5.55-21.05,3.7-5.06,8.74-7.59,15.1-7.59,2.82,0,5.48.39,7.98,1.17.93.29,1.84.67,2.74,1.1l-4.81,24.64c-1.15,5.96-2.88,9.98-5.21,12.05-2.35,2.09-5.19,3.13-8.53,3.13Z"/>
    <path class="cls-1" d="M824.72,37.22c-4.17-2.92-9.18-4.38-15.02-4.38-4.9,0-9.6,1.2-14.08,3.6-3.76,2.01-7.12,5.11-10.07,9.25l2.09-10.97h-23l-15.8,81.36h25.03l9.45-48.41c1.11-4.3,2.6-7.31,4.48-9.01,2.19-1.98,5.21-2.97,9.08-2.97h2.35c3.65,0,6.36,1.23,8.14,3.68,1.77,2.45,2.24,5.97,1.41,10.56l-8.92,46.16h25.04l9.23-47.41c1.46-7.41,1.3-13.77-.47-19.09-1.77-5.32-4.75-9.44-8.92-12.36Z"/>
    <polygon class="cls-1" points="934 34.72 905.99 34.72 875.21 65.21 887.84 .29 862.81 .29 840.27 116.08 865.31 116.08 869.14 96.41 881.53 83.77 893 116.08 918.98 116.08 901.08 67.51 934 34.72"/>
  </g>
</svg>