<?xml version="1.0" encoding="UTF-8"?>
<svg id="Layer_1" xmlns="http://www.w3.org/2000/svg" version="1.1" viewBox="0 0 512 291">
  <!-- Generator: Adobe Illustrator 30.2.1, SVG Export Plug-In . SVG Version: 2.1.1 Build 1)  -->
  <defs>
    <style>
      .st0 {
        fill: #c0295c;
      }

      .st1 {
        fill: #8c8d90;
      }

      .st2 {
        fill: #8a8c90;
      }

      .st3 {
        fill: #1e4687;
      }

      .st4 {
        fill: #c21e5c;
      }
    </style>
  </defs>
  <rect class="st3" x="6" y="235.18" width="500" height="1.22"/>
  <g>
    <g>
      <path class="st2" d="M23.67,212.44s-.26,6.33-7.11,3.16c-6.86-3.16-6.07-4.21-6.07-4.21l-4.48,4.48s7.65,10.82,18.99,6.6c0,0,5.28-1.85,5.28-10.03v-19.62h-6.6v19.62Z"/>
      <path class="st2" d="M49.78,209.26s-3.35,3.29-6.78,3.29c0,0-2.47.13-2.47-3.71v-16.05h-5.17v18.67s.09,6.17,7.5,6.17c0,0,4.26-.42,6.87-2.46v1.77h5.08v-24.15h-5.02v16.46Z"/>
      <path class="st2" d="M213.53,209.26s-3.35,3.29-6.78,3.29c0,0-2.46.13-2.46-3.71v-16.05h-5.18v18.67s.09,6.17,7.5,6.17c0,0,4.26-.42,6.87-2.46v1.77h5.08v-24.15h-5.02v16.46Z"/>
      <path class="st2" d="M86.37,192.1c-5.22-.27-8.11,3.29-8.11,3.29,0,0-1.09-3.29-5.35-3.29s-6.74,2.33-6.74,2.33v-1.63h-5.44v24.42h5.36v-16.88s2.14-2.88,5.43-2.88c0,0,3.02,0,3.02,2.75v17.01h5.27v-17.56s1.73-2.2,5.3-2.2c0,0,2.89-.42,2.89,4.27v15.49h5.39v-18.8s-.06-5.94-7.04-6.31Z"/>
      <path class="st2" d="M104.54,192.8l.08-8.93-5.35.14v33.21s20.32,2.89,20.32-12.21c0,0,.52-12.21-15.05-12.21ZM104.35,212.97v-14.69s10.29-.42,10.29,6.86-10.29,7.83-10.29,7.83Z"/>
      <path class="st2" d="M132.94,192.65c-6.28,0-11.37,5.62-11.37,12.56s5.08,12.56,11.37,12.56,11.36-5.61,11.36-12.56-5.09-12.56-11.36-12.56ZM132.94,213.1c-3.34,0-6.05-3.52-6.05-7.89s2.7-7.89,6.05-7.89,6.04,3.54,6.04,7.89-2.72,7.89-6.04,7.89Z"/>
      <path class="st2" d="M183.47,192.65c-6.29,0-11.37,5.62-11.37,12.56s5.08,12.56,11.37,12.56,11.35-5.61,11.35-12.56-5.09-12.56-11.35-12.56ZM183.47,213.1c-3.35,0-6.05-3.52-6.05-7.89s2.7-7.89,6.05-7.89,6.03,3.54,6.03,7.89-2.71,7.89-6.03,7.89Z"/>
      <path class="st2" d="M165.13,204.28c-1.17-.66-3.11-1.33-5.84-2-1.66-.41-2.78-.81-3.34-1.18-.56-.37-.85-.87-.85-1.5s.31-1.19.94-1.61c.62-.42,1.55-.63,2.77-.63,2.38,0,4.1.81,5.14,2.42l4.42-3.13c-.88-1.37-2.15-2.4-3.79-3.09-1.64-.68-3.53-1.03-5.68-1.03-3.16,0-5.55.69-7.18,2.06-1.62,1.38-2.44,3.12-2.44,5.24s.65,3.71,1.95,4.99c1.3,1.28,3.54,2.27,6.73,2.97,1.69.41,2.94.81,3.73,1.2.8.39,1.19.95,1.19,1.66,0,1.63-1.41,2.45-4.21,2.45-1.07,0-2.07-.16-3.01-.49-.94-.33-1.76-.98-2.48-1.96l-4.39,3.09c1.81,2.79,5.23,4.18,10.25,4.18,1.9,0,3.58-.29,5.05-.89,1.47-.59,2.6-1.46,3.4-2.59.8-1.13,1.21-2.48,1.21-4.07,0-1.43-.31-2.64-.91-3.63-.6-.98-1.49-1.81-2.65-2.47Z"/>
      <path class="st2" d="M242.79,193.22h-2.81v2.26c-.75-.75-1.76-1.42-3.03-2.03-1.26-.61-2.62-.92-4.07-.92-3.2,0-5.67,1.13-7.41,3.4-1.74,2.27-2.61,5.43-2.61,9.48s.8,7.18,2.4,9.32c1.6,2.13,3.91,3.2,6.93,3.2,2.62,0,5.01-.88,7.16-2.63v10.96h5.9v-33.04h-2.47ZM239.35,210.37c-.72.66-1.58,1.21-2.6,1.66-1.02.45-2.01.68-2.99.68-1.69,0-2.92-.65-3.68-1.95-.76-1.3-1.14-3.11-1.14-5.44s.48-4.18,1.44-5.55c.95-1.36,2.23-2.05,3.82-2.05.87,0,1.77.19,2.69.58.92.39,1.74.91,2.46,1.57v10.5Z"/>
    </g>
    <g>
      <path class="st2" d="M422.42,203.76c-.52-1.13-1.19-2.19-2.02-3.1-.61-.66-1.23-1.31-1.94-1.87-.75-.59-1.56-1.09-2.42-1.49-.97-.45-1.99-.76-3.04-.95-.83-.15-1.67-.21-2.51-.21-10.42,0-13.23,7.88-13.3,11.63-.02,1.64.05,4.9.05,4.9h18.59s.4,3.4-.89,4.83c-.95,1.08-2.16,2.23-4.63,2.25-.41,0-.81.05-1.21-.02-.9-.14-1.78-.4-2.63-.73-.9-.35-1.76-.76-2.61-1.22-.81-.44-1.6-.91-2.38-1.4-.65-.41-1.3-.84-1.94-1.26l-5.47,4.41s1.25,1.42,3.5,3.03c2.52,1.79,6.34,3.73,12.2,3.69,5.9-.04,9.48-3.02,11.44-6,.05-.06.09-.12.14-.19.07-.1.12-.22.18-.32.09-.16.17-.33.27-.49,1.1-1.83,1.84-4.08,2.06-6.81.05-.44.07-.98.07-1.54,0-2.44-.46-4.67-1.25-6.61-.08-.17-.16-.35-.26-.53ZM407.74,205.91h-3.97s.01-.09.02-.17c.03-.24.07-.44.13-.67.08-.34.19-.66.33-.98.17-.39.38-.76.63-1.11.29-.4.63-.75,1.02-1.06.45-.36.96-.63,1.5-.83.67-.25,1.37-.37,2.08-.42,1-.07,2.02-.02,2.98.26.6.17,1.17.43,1.68.78.43.29.82.65,1.16,1.06.29.35.53.74.73,1.16.16.34.29.7.4,1.06.07.25.13.44.17.7,0,.01.03.22.03.22h-8.88Z"/>
      <path class="st2" d="M494.24,188.9c-.85-.14-1.74-.22-2.69-.22l-3.03,5.75c.29,0,.58.01.86.04,2.7.21,5.01,1.35,6.42,2.66,2.07,1.91,2.1,4.35,2.1,5.19,0,1.48-.11,3.59-2.79,3.59h-9.53c.03-.44.44-1.18.6-2.47.14-1.14,0-2.87-.18-3.6-.31-1.28-2.9-7.71-9.11-10.23l-5.34,4.95s2.34.98,4.41,3.29c.94,1.05,2.21,3.12,2.21,4.64s-1.69,2.98-3.37,3.42h-4.93s.43-1.03.59-2.33c.13-1.12,0-2.76-.18-3.46-.3-1.24-2.82-7.5-8.88-9.95l-5.2,4.83s2.28.96,4.3,3.22c.92,1.03,2.16,3.14,2.16,4.63,0,1.67-2.21,3.48-3.98,3.48-.22,0-1.35,0-1.78,0h0c-1.28-.01-1.99-.01-2.27-.01,0,0-2.39-10.23-12.8-10.23s-13.16,7.92-13.23,11.67c-.02,1.64.12,4.94.12,4.94h18.59s.4,3.37-.89,4.79c-.95,1.08-2.16,2.21-4.63,2.23-3.66.04-8.3-3.06-10.77-4.69l-5.47,4.44s1.25,1.44,3.5,3.04c2.52,1.79,6.34,3.66,12.2,3.62,12.61-.1,13.95-12.12,13.6-13.42h31.94c4.37,0,8.57.08,11.18,0,5.35-.17,8.03-4.99,8.03-8.98,0-5.77-3.52-13.41-11.76-14.79ZM435.26,205.91s.17-5.52,6.37-5.52,6.48,5.52,6.48,5.52h-12.85Z"/>
      <path class="st2" d="M406.74,192.48c1.42,0,2.57-1.16,2.57-2.59s-1.15-2.59-2.57-2.59-2.57,1.16-2.57,2.59,1.15,2.59,2.57,2.59Z"/>
      <ellipse class="st2" cx="377.55" cy="212.94" rx="2.49" ry="2.45"/>
      <path class="st2" d="M375.17,189.03c-10.07,0-8.65,7.36-8.65,7.36,0,0,1.06-1.67,5.66-1.67,3.04,0,5.66,1.23,7.21,2.66,2.04,1.89,2.08,4.32,2.08,5.16,0,1.47-.11,3.57-2.76,3.57h-23.31c0-.12.02-.24.02-.36,0-6.39-5.58-11.56-12.47-11.56s-12.48,5.17-12.48,11.56c0,.12.03.24.03.36h-11.99s.43-1.14.59-2.44c.13-1.11,0-2.81-.18-3.52-.3-1.24-2.82-7.52-8.88-9.98l-5.2,4.82s2.28.95,4.3,3.21c.92,1.03,2.16,3.14,2.16,4.63,0,1.67-1.94,3.48-3.71,3.48-1.01,0-9.13-.02-10.03-.02,0,0-2.52-10.23-12.93-10.23s-13.23,8.12-13.3,11.86c-.02,1.64.05,4.75.05,4.75h18.59s.4,3.56-.89,4.98c-.95,1.08-2.16,2.11-4.63,2.13-3.66.04-8.3-3.11-10.77-4.74l-5.47,4.41s1.25,1.42,3.5,3.02c2.52,1.79,6.34,3.73,12.2,3.69,12.61-.09,13.95-11.96,13.6-13.6h5.77c.26-1.82,1.71-3.21,3.48-3.21s3.22,1.4,3.48,3.21h22.69c2.27,2.87,5.92,4.72,10.04,4.72s7.77-1.86,10.04-4.72h.66s11.54.13,20.43.1c.22-1.86,1.69-3.31,3.49-3.31s3.22,1.4,3.48,3.23c.17,0,.34,0,.49-.01,5.29-.16,7.94-4.7,7.94-8.66,0-6.29-4.24-14.89-14.3-14.89ZM277.9,206.2s.17-5.52,6.37-5.52,6.48,5.52,6.48,5.52h-12.85ZM342.95,211.83c-3.69,0-6.68-2.77-6.68-6.19s2.99-6.2,6.68-6.2,6.69,2.78,6.69,6.2-2.99,6.19-6.69,6.19Z"/>
      <path class="st2" d="M306.73,210.49c-1.38,0-2.49,1.1-2.49,2.45s1.11,2.45,2.49,2.45,2.49-1.1,2.49-2.45-1.11-2.45-2.49-2.45Z"/>
      <path class="st2" d="M413.7,192.48c1.42,0,2.57-1.16,2.57-2.59s-1.15-2.59-2.57-2.59-2.57,1.16-2.57,2.59,1.15,2.59,2.57,2.59Z"/>
    </g>
  </g>
  <g>
    <g>
      <path class="st3" d="M449.25,170.7c2.62,0,5.03-.43,7.22-1.3.36-.14.77-.1,1.09.12,2.64,1.77,4.07,2.71,4.28,2.82.74.4,1.48.74,2.24,1.02.54.2,1.15-.06,1.42-.57l1.59-3.05c.32-.62.03-1.36-.61-1.63-1.22-.52-2.39-1.13-3.5-1.83-.58-.37-.68-1.17-.26-1.72,1.02-1.36,1.8-2.76,2.32-4.2.86-2.34,1.29-5.06,1.29-8.15,0-5.84-1.56-10.39-4.66-13.63-3.11-3.25-7.31-4.87-12.62-4.87s-9.59,1.62-12.72,4.87c-3.12,3.25-4.69,7.79-4.69,13.63s1.56,10.41,4.67,13.64c3.12,3.24,7.42,4.86,12.92,4.86ZM441.84,142.95c1.83-2.05,4.22-3.08,7.16-3.08s5.33,1.02,7.15,3.06c1.82,2.04,2.73,5.13,2.73,9.26,0,2-.23,3.78-.7,5.32-.33,1.09-.77,2.07-1.33,2.94-.37.58-1.13.73-1.69.34-1.57-1.08-3.19-1.95-4.87-2.62-.56-.22-1.21.05-1.48.59l-.88,1.79c-.4.82-.16,1.56.45,1.82,1.13.48,2.24,1.08,3.34,1.8-.93.34-1.91.51-2.95.51-2.8,0-5.11-1.04-6.94-3.11-1.83-2.07-2.75-5.2-2.75-9.39s.92-7.2,2.75-9.25Z"/>
      <path class="st3" d="M470.96,170.79h5.42c.49,0,.94-.31,1.11-.77l2.51-6.9c.17-.46.61-.77,1.11-.77h13.23c.49,0,.92.3,1.1.75l2.67,6.94c.17.45.61.75,1.1.75h5.62c.83,0,1.4-.84,1.09-1.61l-13.95-34.83c-.18-.45-.61-.74-1.09-.74h-6.34c-.48,0-.92.3-1.1.75l-13.57,34.83c-.3.77.27,1.6,1.1,1.6ZM483.16,154.5l3.36-9.22c.37-1.03,1.83-1.03,2.21,0l3.42,9.22c.29.77-.28,1.59-1.1,1.59h-6.78c-.82,0-1.38-.81-1.1-1.58Z"/>
      <path class="st0" d="M307.07,170.81h51.94c31.68,0,53.8-19.78,53.8-48.09,0-24.27-16.94-40.25-38.74-47.24-12.36-3.96-28.07-9.58-28.07-25.09,0-14.43,11.71-20.89,23.32-20.89h39.24c2.41,0,4.22-1.95,4.22-4.36v-15.14c0-2.41-1.81-4.36-4.22-4.36h-39.24c-25.2,0-47.12,18.72-47.12,44.76,0,18.7,11.82,33.95,28.34,41.66,15.59,7.27,38.47,7.73,38.47,30.67,0,4.05-1.45,24.23-29.99,24.23h-51.94c-2.41,0-4.36,1.95-4.36,4.36v15.14c0,2.41,1.95,4.36,4.36,4.36Z"/>
      <path class="st3" d="M216.29,170.85c48.51-1.31,86.42-23.88,86.42-71.6V9.97c0-2.41-1.95-4.37-4.36-4.37h-59.59c-2.41,0-4.36,1.96-4.36,4.37v14.91c0,2.41,1.95,4.37,4.36,4.37h35.8c2.41,0,4.36,1.96,4.36,4.37v65.64c0,31.63-27.49,46.62-62.94,47.71-2.34.07-4.2,2.01-4.2,4.36v15.16c0,2.47,2.05,4.44,4.52,4.37Z"/>
      <circle class="st0" cx="242.89" cy="55.82" r="8.34"/>
      <circle class="st3" cx="420.86" cy="162.65" r="8.23"/>
    </g>
    <g>
      <path class="st1" d="M73.53,141.46c8.96-3.46,19.82,3.99,19.56,13.64.6,8.39-7.3,15.9-15.63,15.16-7.68-.3-14.29-7.44-13.87-15.15.05-6.04,4.22-11.73,9.94-13.65"/>
      <path class="st1" d="M118.5,141.15c7.92-2.33,16.82,3.34,18.25,11.42,1.7,7.49-3.5,15.59-10.96,17.25-8.39,2.4-17.98-4.27-18.2-13.1-.87-6.98,4.11-13.95,10.91-15.57"/>
      <path class="st1" d="M144.82,156.02c.08-1.33.28-2.67.66-3.95,18.96.89,37.93.96,56.88,2.1-19.18.73-38.36,1.33-57.54,1.85"/>
      <path class="st1" d="M144.28,161.43c10.32.52,20.62,1.3,30.96,1.57-10.48,1.15-21.03,1.69-31.55,2.34.18-1.31.38-2.61.59-3.92"/>
      <path class="st1" d="M130.37,123.83c-.75-4.15-1.83-8.24-2.92-12.31-.69-2.73-3.61-4.13-6.24-3.95-21.06-.03-42.13,0-63.2-.01-4.83.14-9.77-2.23-12.24-6.49-4.6-8.01-9.14-16.04-13.72-24.05-1.56-2.51-1.65-6.27.74-8.31,2.46-2.52,6.29-1.92,9.47-1.84,25.2-.19,50.4.02,75.6-.02,1.54-.03,3.87-.78,3.61-2.71-.6-3.05-.9-6.4-2.68-9.01-1.75-.6-3.62-.37-5.43-.43-30.89.16-61.79-.23-92.66.2-9.32.45-15.1,11.68-10.85,19.77,8.77,15.97,18.04,31.69,26.98,47.6,2.32,4.63,7.2,7.86,12.43,7.86,25.2.02,50.4.02,75.61,0,3.27.13,6.34-2.95,5.51-6.29M64.1,121.27c.35-1.17.71-2.33,1.11-3.49,19.33.46,38.62,1.15,57.97,1.4-19.62,1.03-39.36,1.52-59.08,2.1"/>
      <path class="st1" d="M211.7,20.81h-43.86s-9.65-2.03-9.65,19.9v91.09h-14.5V30.47s.6-24.74,22.92-24.74h45.08v15.08Z"/>
    </g>
  </g>
  <g>
    <path class="st4" d="M24.57,248.6v19.12c0,2.65-.77,4.71-2.3,6.18-1.53,1.47-3.59,2.2-6.16,2.2s-4.7-.75-6.3-2.26c-1.6-1.51-2.4-3.62-2.4-6.32h5.46c.03,1.17.31,2.08.84,2.73.53.65,1.31.98,2.32.98s1.74-.31,2.26-.94c.52-.62.78-1.48.78-2.58v-19.12h5.5Z"/>
    <path class="st4" d="M36.31,248.6v16.85c0,1.85.48,3.26,1.44,4.23.96.98,2.31,1.46,4.06,1.46s3.13-.49,4.1-1.46c.96-.98,1.44-2.39,1.44-4.23v-16.85h5.5v16.81c0,2.32-.5,4.27-1.5,5.87-1,1.6-2.34,2.8-4.02,3.61-1.68.81-3.54,1.21-5.6,1.21s-3.87-.4-5.52-1.21c-1.65-.81-2.96-2.01-3.92-3.61-.96-1.6-1.44-3.56-1.44-5.87v-16.81h5.46Z"/>
    <path class="st4" d="M62.39,275.12c-1.52-.65-2.72-1.59-3.61-2.81-.88-1.22-1.34-2.67-1.37-4.33h5.85c.08,1.12.47,2,1.19,2.65s1.7.97,2.95.97,2.28-.31,3-.92c.73-.61,1.09-1.41,1.09-2.4,0-.81-.25-1.47-.74-1.99-.49-.52-1.11-.93-1.85-1.23-.74-.3-1.76-.63-3.06-.99-1.77-.52-3.21-1.03-4.31-1.54-1.11-.51-2.05-1.27-2.85-2.3-.79-1.03-1.19-2.4-1.19-4.12,0-1.61.4-3.02,1.21-4.21.81-1.2,1.94-2.11,3.39-2.75,1.46-.64,3.12-.96,4.99-.96,2.81,0,5.09.68,6.85,2.05,1.76,1.37,2.72,3.27,2.91,5.72h-6.01c-.05-.94-.45-1.71-1.19-2.32-.74-.61-1.72-.92-2.95-.92-1.07,0-1.92.27-2.56.82-.64.55-.96,1.34-.96,2.38,0,.73.24,1.33.72,1.81.48.48,1.08.87,1.79,1.17.71.3,1.72.64,3.02,1.03,1.77.52,3.21,1.04,4.33,1.56,1.12.52,2.08,1.3,2.89,2.34.81,1.04,1.21,2.41,1.21,4.1,0,1.46-.38,2.81-1.13,4.06-.75,1.25-1.86,2.24-3.32,2.98-1.46.74-3.19,1.11-5.19,1.11-1.9,0-3.61-.33-5.13-.98Z"/>
    <path class="st4" d="M100.41,248.6v4.41h-7.26v22.82h-5.46v-22.82h-7.26v-4.41h19.97Z"/>
    <path class="st4" d="M117.94,275.12c-1.52-.65-2.72-1.59-3.61-2.81-.88-1.22-1.34-2.67-1.37-4.33h5.85c.08,1.12.47,2,1.19,2.65s1.7.97,2.95.97,2.28-.31,3-.92c.73-.61,1.09-1.41,1.09-2.4,0-.81-.25-1.47-.74-1.99-.49-.52-1.11-.93-1.85-1.23-.74-.3-1.76-.63-3.06-.99-1.77-.52-3.21-1.03-4.31-1.54-1.11-.51-2.05-1.27-2.85-2.3-.79-1.03-1.19-2.4-1.19-4.12,0-1.61.4-3.02,1.21-4.21.81-1.2,1.94-2.11,3.39-2.75,1.46-.64,3.12-.96,4.99-.96,2.81,0,5.09.68,6.85,2.05,1.76,1.37,2.72,3.27,2.91,5.72h-6.01c-.05-.94-.45-1.71-1.19-2.32-.74-.61-1.72-.92-2.95-.92-1.07,0-1.92.27-2.56.82-.64.55-.96,1.34-.96,2.38,0,.73.24,1.33.72,1.81.48.48,1.08.87,1.79,1.17.71.3,1.72.64,3.02,1.03,1.77.52,3.21,1.04,4.33,1.56,1.12.52,2.08,1.3,2.89,2.34.81,1.04,1.21,2.41,1.21,4.1,0,1.46-.38,2.81-1.13,4.06-.75,1.25-1.86,2.24-3.32,2.98-1.46.74-3.19,1.11-5.19,1.11-1.9,0-3.61-.33-5.13-.98Z"/>
    <path class="st4" d="M167.12,248.6v27.23h-5.46v-17.71l-7.3,17.71h-4.14l-7.33-17.71v17.71h-5.46v-27.23h6.2l8.66,20.25,8.66-20.25h6.16Z"/>
    <path class="st4" d="M189.2,270.64h-10.85l-1.79,5.19h-5.73l9.79-27.27h6.36l9.79,27.27h-5.77l-1.79-5.19ZM187.71,266.27l-3.94-11.39-3.94,11.39h7.88Z"/>
    <path class="st4" d="M214.48,275.83l-6.01-10.61h-2.57v10.61h-5.46v-27.23h10.22c2.11,0,3.9.37,5.38,1.11,1.48.74,2.59,1.74,3.34,3s1.11,2.67,1.11,4.23c0,1.79-.52,3.41-1.56,4.86-1.04,1.44-2.59,2.44-4.64,2.98l6.52,11.04h-6.32ZM205.89,261.12h4.56c1.48,0,2.59-.36,3.32-1.07.73-.72,1.09-1.71,1.09-2.98s-.36-2.22-1.09-2.91c-.73-.69-1.83-1.03-3.32-1.03h-4.56v8Z"/>
    <path class="st4" d="M243.97,248.6v4.41h-7.26v22.82h-5.46v-22.82h-7.26v-4.41h19.97Z"/>
  </g>
  <g>
    <path class="st0" d="M268.76,271.51h3.84v-22.15h4.63l-.54,15.1c3.84-4.96,7.84-7.22,12.31-7.22,7.05,0,10.64,4.8,10.72,14.27h4.71v4.76h-35.67v-4.76ZM276.31,271.51h18.61l.08-1.34c0-5.3-2.46-8.76-6.47-8.76-4.67,0-9.64,4.34-12.22,10.1Z"/>
    <path class="st0" d="M331.55,276.26h-4.63c-4.01,0-7.09-.75-9.3-2.29-2.17,1.54-5.26,2.29-9.22,2.29h-5.13v-4.76h4.88c2.09,0,3.38-.17,3.88-.46-1.34-1-2.38-2.29-3.09-3.84-.63-1.38-.96-2.84-.96-4.34,0-1.08.17-2.04.5-2.88,1.54-3.96,4.96-6.42,9.18-6.42,4.71,0,9.72,3.21,9.72,9.14,0,1.54-.33,3-1,4.42-.71,1.63-1.75,2.92-3.05,3.92.46.29,1.75.46,3.88.46h4.34v4.76ZM315.91,250.31h-4.59v-4.67h4.59v4.67ZM320.21,267.79c1.84-1.29,2.75-3.09,2.75-5.34,0-1.46-.42-2.67-1.29-3.63-.96-1.04-2.29-1.59-4.01-1.59s-3.05.54-4.01,1.59c-.88.96-1.34,2.17-1.34,3.63,0,2.21.92,4.01,2.75,5.34.75.54,1.63,1.08,2.59,1.54.96-.5,1.84-1,2.54-1.54ZM323.83,250.31h-4.59v-4.67h4.59v4.67Z"/>
    <path class="st0" d="M339.36,276.26h-9.22v-4.76h9.22v4.76Z"/>
    <path class="st0" d="M362.68,266.67c0,5.51-3.75,9.6-9.35,9.6h-14.85v-4.76h6.63c-.79-1.5-1.21-3.17-1.21-4.96,0-5.67,3.88-9.64,9.43-9.64s9.35,4.3,9.35,9.76ZM357.88,266.67c0-3.17-1.92-5.51-4.71-5.51s-4.46,2.09-4.46,5.34c0,3,1.92,5.47,4.71,5.47s4.46-2.21,4.46-5.3ZM355.59,253.4h-4.55v-4.63h4.55v4.63Z"/>
    <path class="st0" d="M401.94,276.26h-5.05c-3.63,0-6.59-2.46-7.55-6.17-1.46,2.09-3.25,3.13-5.34,3.13-5.34,0-8.64-4.01-8.64-9.8,0-6.26,3.3-10.14,8.64-10.14h10.3v13.22c0,3.25,1.54,5.01,4.67,5.01h2.96v4.76ZM389.47,262.95v-6.05h-4.21c-3.25,0-5.26,2.59-5.26,6.47,0,3.21,1.79,5.97,4.59,5.97,3.05,0,4.88-2.84,4.88-6.38ZM386.05,249.9h-4.59v-4.67h4.59v4.67ZM393.93,249.9h-4.59v-4.67h4.59v4.67Z"/>
    <path class="st0" d="M405.03,285.4h-4.59v-4.67h4.59v4.67ZM419.88,276.26h-19.23v-4.76h4.46c1.38,0,2.34-.46,2.84-1.42.33-.63.5-1.71.5-3.17v-9.6h4.63v9.35c0,2.46-.33,4.05-1.04,4.84h7.84v4.76ZM412.92,285.4h-4.59v-4.67h4.59v4.67Z"/>
    <path class="st0" d="M428.02,276.26h-9.22v-4.76h9.22v4.76Z"/>
    <path class="st0" d="M454.89,273.34v2.92h-27.91v-4.76h22.9c0-2.59-.75-4.8-2.25-6.63-1.75-2.13-4.17-3.17-7.22-3.17h-9.64l8.22-12.35h5.55l-5.63,7.97h2.04c3.09,0,5.76.75,8.01,2.29,3.96,2.63,5.92,7.18,5.92,13.73Z"/>
    <path class="st0" d="M485.89,276.26h-27.08v-4.76h15.1c0-5.47-2.13-8.64-6.34-9.55-1.29-.29-2.71-.38-4.21-.38v-4.26c2.29,0,3.75.04,4.34.08.58.04,1.42.21,2.5.58,5.59,1.88,8.39,6.38,8.43,13.52h7.26v4.76ZM470.08,253.4h-4.55v-4.63h4.55v4.63Z"/>
    <path class="st0" d="M495.74,268.71c0,5.05-2.34,7.55-7.01,7.55h-4.92v-4.76h3.96c1.54,0,2.5-.46,2.96-1.38.21-.5.33-1.5.33-3v-17.77h4.67v19.36Z"/>
    <path class="st0" d="M504.67,276.26h-4.63v-26.95h4.63v26.95Z"/>
  </g>
</svg>