<svg height="57" width="111" viewBox="0 0 111 57" xmlns="http://www.w3.org/2000/svg" version="1.2">
	<style>
		.s0 { fill: #9bbd3c } 
		.s1 { fill: #6385ad } 
		.s2 { fill: #b3258e } 
		.s3 { fill: #ffe111 } 
		.s4 { fill: #ed8922 } 
		.s5 { fill: #77569b } 
		.s6 { fill: #c83191 } 
		.s7 { fill: #3b3b3b } 
		.s8 { fill: #3fa8df } 
		.s9 { fill: #020204 } 
	</style>
	<g>
		<path d="m52.64 38.13q0.81 0.64 1.71 1.16 1.33 0.75 2.82 1.09 0.73 0.15 1.47 0.19 0.68 0.03 1.36-0.04 1.29-0.15 2.5-0.63 1.58-0.64 2.95-1.65 1.48-1.09 2.72-2.43 1.01-1.09 1.85-2.3 0 0 0.02 0-0.01 0.01-0.01 0.03c-0.54 1.46-1.2 2.84-2.05 4.15q-0.94 1.46-2.2 2.66c-1.31 1.24-2.8 2.17-4.53 2.72q-0.87 0.28-1.79 0.4-0.34 0.03-0.67 0.05-0.04 0-0.07 0.01h-0.66q-0.02-0.01-0.05-0.01-0.39-0.03-0.77-0.08-0.88-0.12-1.61-0.64c-0.57-0.39-1.03-0.9-1.43-1.46-0.6-0.84-1.04-1.77-1.4-2.75q-0.08-0.22-0.16-0.44z" class="s0"></path>
		<g>
			<path d="m18.45 13.97v20.43q0 6.03-3.6 9.11-2.68 2.35-6.08 2.35v-2.17l-0.04-2.19q1.67-0.05 2.98-1.07 2.35-1.8 2.35-6.03v-3.22q-2.21 1.34-4.84 1.35-3.78 0-6.47-2.67-2.72-2.7-2.72-6.45v-9.44h4.39v9.44q0.01 1.95 1.41 3.37 1.43 1.4 3.39 1.4 1.98 0 3.43-1.4 1.41-1.42 1.41-3.37v-9.44z" class="s1"></path>
			<path d="m29.79 34.11q-2.2 1.38-4.97 1.39-3.84 0-6.58-2.73-2.75-2.73-2.76-6.55 0.01-3.83 2.76-6.53 2.74-2.75 6.58-2.75c2.56 0 4.79 0.92 6.62 2.75q2.74 2.69 2.74 6.53v9.28h-4.39zm-8.43-11.33q-1.4 1.42-1.41 3.43c0 1.35 0.48 2.47 1.41 3.44q1.46 1.42 3.46 1.42c1.33 0 2.52-0.48 3.48-1.42q1.43-1.45 1.43-3.44c0-1.32-0.48-2.48-1.43-3.43q-1.45-1.42-3.48-1.42c-1.35 0-2.48 0.47-3.46 1.42z" class="s2"></path>
			<path d="m36.25 2.46v32.28h-4.39v-32.28z" class="s3" fill-rule="evenodd"></path>
			<path d="m40.53 5.6v32.29h-4.39v-32.29z" class="s4" fill-rule="evenodd"></path>
			<path d="m54.87 16.89q-2.74-2.75-6.62-2.75c-2.58 0-4.75 0.91-6.57 2.75q-2.76 2.68-2.77 6.52c0 2.57 0.94 4.74 2.77 6.56q2.73 2.72 6.57 2.72 2.77-0.01 4.97-1.38v1.38h4.39v-9.28q0-3.84-2.74-6.52zm-3.14 9.96q-1.44 1.42-3.48 1.42c-1.35 0-2.48-0.48-3.46-1.42q-1.4-1.45-1.41-3.44 0.01-1.99 1.41-3.43 0.68-0.66 1.49-1.01 0-0.01 0.02-0.02 0.85-0.6 1.85-0.89 0.35-0.11 0.71-0.16 0.18-0.03 0.35-0.05 0.17-0.02 0.33-0.03 0.07-0.01 0.15-0.01h0.3q0.06 0 0.13 0.01c0.3 0.02 0.58 0.06 0.86 0.17q0.34 0.14 0.62 0.39 0.51 0.44 0.82 1.03 0.09 0.17 0.17 0.34 0 0 0 0.01-0.06-0.03-0.13-0.07-1.05-0.6-2.25-0.77-0.03 0-0.06 0 0.87 0.35 1.58 1.06 1.44 1.42 1.44 3.43c0 1.35-0.48 2.48-1.44 3.44z" class="s5"></path>
			<path d="m70.73 10.36h-3.59v21.93h-4.18v-21.93h-3.59v-4.16h3.59v-6.2h4.18v6.2h3.59z" class="s0"></path>
			<path d="m99.77 16.06v20.43q0 6.04-3.6 9.12-2.68 2.34-6.08 2.34v-2.16l-0.04-2.2q1.67-0.06 2.98-1.06 2.35-1.81 2.34-6.04v-3.22q-2.2 1.34-4.82 1.34-3.79 0-6.48-2.66-2.72-2.69-2.72-6.46v-9.43h4.38v9.43q0.01 1.96 1.42 3.38 1.43 1.4 3.4 1.4 1.97 0 3.41-1.4 1.43-1.42 1.41-3.38v-9.43z" class="s6"></path>
			<path d="m81.62 17.69q-2.74-2.75-6.61-2.74c-2.57 0-4.74 0.9-6.57 2.74q-2.75 2.69-2.76 6.54 0.01 3.83 2.76 6.55 2.74 2.72 6.57 2.72 3.86 0 6.61-2.72 2.74-2.73 2.74-6.55 0-3.83-2.74-6.54zm-3.15 9.97q-1.43 1.42-3.46 1.42-2.01 0-3.45-1.42-1.41-1.45-1.42-3.44 0.01-2 1.42-3.43 0.7-0.68 1.51-1.03-1.06 0.19-1.99 0.72-0.06 0.04-0.13 0.08v-0.01q0-0.01 0.01-0.01 0.08-0.17 0.17-0.34 0.3-0.59 0.81-1.03 0.28-0.25 0.63-0.39c0.27-0.11 0.55-0.15 0.85-0.17q0.07 0 0.14-0.01h0.29q0.08 0 0.15 0.01 0.16 0.01 0.33 0.03 0.18 0.02 0.35 0.05 0.36 0.06 0.71 0.16 1.01 0.29 1.85 0.89 0.37 0.27 0.7 0.59 0.28 0.2 0.53 0.46 1.44 1.42 1.44 3.43-0.01 2-1.44 3.44z" class="s5"></path>
			<path d="m51.93 22.4q-0.1-0.5-0.38-0.94-0.26-0.39-0.68-0.63-0.27-0.15-0.58-0.19-0.06-0.01-0.13-0.01h-0.14q-0.01 0-0.01 0-0.12 0.02-0.25 0.03-0.05 0.02-0.11 0.03 0.01 0.01 0.01 0.01 0.25 0.19 0.35 0.48 0.15 0.38 0.1 0.78-0.02 0.3-0.17 0.57-0.15 0.31-0.45 0.5-0.25 0.15-0.54 0.13-0.26-0.04-0.45-0.22-0.26-0.24-0.35-0.58 0-0.04-0.02-0.07-0.01 0.02-0.01 0.03-0.15 0.43-0.17 0.88-0.01 0.06-0.01 0.11v0.22q0 0.01 0 0.03 0.01 0.28 0.08 0.56 0.1 0.5 0.38 0.93 0.25 0.38 0.64 0.61 0.29 0.18 0.62 0.22 0.07 0.01 0.13 0.01h0.14q0.01 0 0.02 0 0.32-0.03 0.61-0.16 0.47-0.23 0.79-0.65 0.33-0.41 0.48-0.9 0.15-0.42 0.18-0.86 0-0.06 0-0.12v-0.21q0-0.01 0-0.03-0.01-0.28-0.08-0.56z" class="s7"></path>
			<path d="m75.91 22.5q0-0.01-0.01-0.03-0.01 0.03-0.02 0.07-0.08 0.34-0.35 0.58-0.19 0.18-0.44 0.21-0.3 0.03-0.55-0.12-0.29-0.19-0.45-0.5-0.14-0.27-0.17-0.57-0.05-0.4 0.1-0.78 0.11-0.29 0.35-0.48 0 0 0.01-0.01-0.06-0.02-0.11-0.03-0.12-0.01-0.24-0.04-0.01 0-0.02 0h-0.14q-0.07 0.01-0.12 0.02-0.32 0.03-0.59 0.19-0.42 0.24-0.67 0.63-0.29 0.43-0.39 0.94-0.06 0.28-0.08 0.56 0 0.02 0 0.02v0.22q0.01 0.05 0.01 0.11 0.03 0.45 0.17 0.87 0.16 0.49 0.48 0.9 0.32 0.42 0.79 0.65 0.29 0.13 0.61 0.15 0.01 0 0.03 0h0.14q0.06 0 0.12 0 0.34-0.05 0.62-0.22 0.39-0.23 0.64-0.62 0.28-0.43 0.39-0.92 0.06-0.28 0.07-0.57 0-0.01 0.01-0.03v-0.21q-0.01-0.06-0.02-0.11-0.02-0.45-0.17-0.88z" class="s7"></path>
			<g style="opacity: .85">
				<path d="m100.54 32.01q-1.91-1.66-1.91-4.13h4.33q0.01 0.79 0.86 1.14 0.44 0.18 0.85 0.18 0.84 0 1.31-0.24 0.52-0.23 0.58-0.77 0.01-0.59-0.28-0.82-0.44-0.47-1.85-0.64-2.89-0.32-4.53-2.05-1.44-1.55-1.45-3.57 0-2.42 1.59-4.19 1.73-1.97 4.53-1.97 2.81 0 4.59 1.79 1.82 1.82 1.81 4.55h-4.33q0.01-2.02-2.07-2.02-1.78 0-1.78 1.84 0 1.12 2.14 1.38 3.43 0.38 4.93 2.39 1.04 1.36 1.03 3.31 0.01 2.31-1.82 3.82c-1.24 0.98-2.69 1.49-4.4 1.49q-2.38-0.01-4.13-1.49z" class="s8"></path>
			</g>
		</g>
	</g>
	<g>
		<path d="m5.67 55.43q-0.2 0-0.35-0.14-0.15-0.14-0.15-0.31 0-0.17 0.15-0.31 0.15-0.14 0.35-0.14 0.22 0 0.35 0.13 0.15 0.13 0.15 0.32 0 0.17-0.15 0.31-0.15 0.14-0.35 0.14z" class="s9"></path>
		<path d="m8.36 55.43q-0.2 0-0.35-0.14-0.15-0.14-0.15-0.31 0-0.17 0.15-0.31 0.15-0.14 0.35-0.14 0.21 0 0.36 0.13 0.13 0.13 0.13 0.32 0 0.17-0.14 0.31-0.15 0.14-0.35 0.14z" class="s9"></path>
		<path d="m11.04 55.43q-0.2 0-0.35-0.14-0.14-0.14-0.14-0.31 0-0.17 0.14-0.31 0.15-0.14 0.35-0.14 0.22 0 0.36 0.13 0.14 0.13 0.14 0.32 0 0.17-0.15 0.31-0.14 0.14-0.35 0.14z" class="s9"></path>
		<path d="m16.05 51.02q-0.15 0.35-0.62 1.5-0.38 0.96-0.66 1.51-0.47 0.95-0.5 1-0.18 0.29-0.42 0.29-0.16 0-0.29-0.12-0.14-0.13-0.14-0.33 0-0.16 0.63-1.35-0.23-0.37-0.67-1.11-0.32-0.55-0.96-1.65-0.05-0.12-0.05-0.24 0-0.18 0.13-0.32 0.13-0.12 0.3-0.12 0.2 0 0.36 0.22l0.22 0.39q0.03 0.05 0.53 0.97 0.31 0.59 0.56 0.93 0.22-0.51 0.65-1.53 0.1-0.22 0.28-0.68 0.11-0.3 0.39-0.3 0.17 0 0.29 0.12 0.15 0.13 0.15 0.32 0 0.12-0.18 0.5z" class="s9"></path>
		<path d="m17.89 55.28q-0.56 0-0.96-0.42-0.44-0.45-0.47-1.22-0.02-0.72 0.37-1.29 0.46-0.68 1.28-0.68 0.6 0 0.96 0.53 0.32 0.48 0.32 1.17 0 0.77-0.37 1.31-0.42 0.6-1.13 0.6zm0.18-2.74q-0.37 0-0.59 0.37-0.18 0.31-0.18 0.73 0 0.4 0.21 0.61 0.16 0.16 0.38 0.16 0.26 0 0.46-0.19 0.22-0.23 0.23-0.61 0.04-1.06-0.51-1.07z" class="s9"></path>
		<path d="m22.55 53.18q0 0.22 0 0.67 0.01 0.44 0.01 0.66 0 0.07 0.01 0.21 0.01 0.14 0.01 0.21 0 0.18-0.12 0.3-0.12 0.12-0.3 0.12-0.25 0-0.38-0.25-0.38 0.15-0.79 0.15-0.42 0-0.72-0.19-0.33-0.23-0.4-0.66-0.12-0.81-0.12-1.46 0-0.42 0.09-0.97 0.06-0.37 0.41-0.37 0.17 0 0.3 0.12 0.12 0.11 0.12 0.3 0 0.14-0.04 0.45-0.04 0.31-0.04 0.47 0 0.45 0.03 0.8 0.03 0.35 0.08 0.57 0.07 0.04 0.15 0.06 0.07 0.02 0.14 0.02 0.34 0 0.74-0.1 0-0.26-0.01-0.58-0.01-0.39-0.01-0.56 0-0.67 0.06-1.16 0.05-0.39 0.42-0.39 0.17 0 0.3 0.12 0.13 0.12 0.12 0.31-0.06 1.25-0.06 1.15z" class="s9"></path>
		<path d="m25.66 52.71q-0.03 0.51-0.42 0.51-0.39 0-0.38-0.43l-0.02-0.34q-0.68 0.13-0.97 0.77v1.65q0 0.19-0.12 0.31-0.12 0.12-0.3 0.12-0.18 0-0.29-0.12-0.09-0.13-0.09-0.31v-2.15q0-0.11 0-0.31 0-0.2 0-0.3 0-0.19 0.11-0.31 0.1-0.12 0.29-0.12 0.33 0 0.4 0.38 0.54-0.44 1.19-0.44 0.6 0 0.6 0.87 0 0.17 0 0.22z" class="s9"></path>
		<path d="m31.67 50.97q-0.07 0-0.15-0.03-0.39-0.13-0.96-0.13-0.18 0-0.42 0.02-0.24 0.03-0.54 0.08 0.01 0.63 0 1.09 0.46-0.12 0.77-0.12 0.56 0 0.98 0.05 0.39 0.05 0.39 0.45 0 0.19-0.12 0.32-0.13 0.12-0.31 0.12-0.15 0-0.47-0.02-0.31-0.03-0.47-0.03-0.22 0-0.77 0.15v2.07q0 0.19-0.13 0.31-0.14 0.13-0.32 0.13-0.18 0-0.28-0.12-0.11-0.13-0.11-0.32v-3.78q0-0.12 0.01-0.38 0-0.26 0-0.39 0-0.19 0.12-0.32 0.12-0.13 0.3-0.13 0.11 0 0.2 0.05 0.35-0.07 0.64-0.1 0.3-0.03 0.53-0.03 0.35 0 0.87 0.16 0.66 0.19 0.66 0.45 0 0.18-0.12 0.32-0.12 0.13-0.3 0.13z" class="s9"></path>
		<path d="m35.15 55.27q-0.13 0-0.43-0.29-0.28 0.14-0.5 0.21-0.2 0.08-0.35 0.08-0.73 0-1.1-0.43-0.37-0.42-0.37-1.27 0-0.79 0.55-1.36 0.54-0.56 1.29-0.56 0.28 0 0.66 0.18 0.46 0.21 0.46 0.49 0 0.12-0.08 0.21-0.02 0.12-0.04 0.32-0.01 0.2-0.01 0.46 0 0.63 0.08 0.9 0 0.03 0.13 0.34 0.12 0.28 0.12 0.32 0 0.17-0.12 0.28-0.12 0.12-0.29 0.12zm-0.74-2.22q0-0.11 0.01-0.25 0.01-0.13 0.04-0.3-0.06-0.03-0.11-0.05-0.04-0.01-0.08-0.01-0.41 0-0.72 0.35-0.31 0.35-0.31 0.81 0 0.45 0.15 0.66 0.15 0.22 0.43 0.22 0.2 0 0.36-0.07 0.17-0.06 0.32-0.2-0.09-0.77-0.09-1.16z" class="s9"></path>
		<path d="m37.61 54.84q-0.01 0.16-0.12 0.27-0.11 0.11-0.27 0.11-0.3 0-0.43-0.34-0.33-0.89-1.01-2.65-0.03-0.1-0.03-0.2 0-0.17 0.13-0.3 0.13-0.12 0.3-0.12 0.26 0 0.37 0.26 0.17 0.4 0.67 1.87 0.16-0.38 0.45-1.14 0.08-0.25 0.26-0.71 0.13-0.26 0.38-0.26 0.16 0 0.3 0.13 0.13 0.12 0.13 0.3 0 0.12-0.49 1.3-0.4 0.97-0.64 1.48z" class="s9"></path>
		<path d="m40.25 55.28q-0.56 0-0.96-0.42-0.45-0.45-0.47-1.22-0.02-0.72 0.37-1.29 0.46-0.68 1.28-0.68 0.61 0 0.97 0.53 0.31 0.48 0.31 1.17 0 0.77-0.37 1.31-0.42 0.6-1.13 0.6zm0.18-2.74q-0.37 0-0.58 0.37-0.19 0.31-0.19 0.73 0 0.4 0.21 0.61 0.16 0.16 0.38 0.16 0.26 0 0.45-0.19 0.23-0.23 0.24-0.61 0.04-1.06-0.51-1.07z" class="s9"></path>
		<path d="m44.91 53.18q0 0.22 0.01 0.67 0 0.44 0 0.66 0 0.07 0.01 0.21 0.01 0.14 0.01 0.21 0 0.18-0.12 0.3-0.13 0.12-0.31 0.12-0.25 0-0.36-0.25-0.39 0.15-0.8 0.15-0.43 0-0.73-0.19-0.33-0.23-0.39-0.66-0.11-0.81-0.11-1.46 0-0.42 0.08-0.97 0.07-0.37 0.41-0.37 0.18 0 0.3 0.12 0.13 0.11 0.13 0.3 0 0.14-0.05 0.45-0.04 0.31-0.04 0.47 0 0.45 0.02 0.8 0.03 0.35 0.09 0.57 0.08 0.04 0.15 0.06 0.07 0.02 0.14 0.02 0.33 0 0.73-0.1 0-0.26 0-0.58 0-0.39 0-0.56 0-0.67 0.06-1.16 0.04-0.39 0.4-0.39 0.18 0 0.31 0.12 0.13 0.12 0.12 0.31-0.06 1.25-0.06 1.15z" class="s9"></path>
		<path d="m48.02 52.71q-0.03 0.51-0.43 0.51-0.38 0-0.38-0.43l-0.01-0.34q-0.68 0.13-0.97 0.77v1.65q0 0.19-0.12 0.31-0.11 0.12-0.3 0.12-0.19 0-0.29-0.12-0.1-0.13-0.1-0.31v-2.15q0-0.11 0.01-0.31 0.01-0.2 0.01-0.3 0-0.19 0.1-0.31 0.1-0.12 0.29-0.12 0.33 0 0.4 0.38 0.53-0.44 1.18-0.44 0.61 0 0.61 0.87 0 0.17 0 0.22z" class="s9"></path>
		<path d="m49.41 53.54q0 0.19 0.01 0.6 0.01 0.42 0.01 0.61 0 0.18-0.12 0.31-0.12 0.12-0.3 0.12-0.18 0-0.3-0.12-0.12-0.12-0.12-0.31 0-0.19-0.01-0.61-0.01-0.41-0.01-0.6 0-0.29 0.03-0.73 0.03-0.44 0.03-0.73 0-0.2 0.12-0.32 0.12-0.12 0.3-0.12 0.18 0 0.3 0.12 0.12 0.12 0.12 0.32 0 0.29-0.04 0.73-0.02 0.44-0.02 0.73zm-0.26-2.41q-0.2 0-0.34-0.14-0.14-0.14-0.14-0.35 0-0.2 0.14-0.34 0.14-0.14 0.34-0.14 0.19 0 0.33 0.14 0.15 0.14 0.15 0.34 0 0.21-0.15 0.35-0.14 0.14-0.33 0.14z" class="s9"></path>
		<path d="m52.33 52.44q-0.06 0-0.15-0.01-0.08 0-0.15 0-0.12 0-0.28 0.02 0.05 1.33 0.05 1.74 0 0.05 0 0.16 0 0.12 0 0.19 0 0.76-0.43 0.76-0.17 0-0.29-0.12-0.13-0.11-0.13-0.29 0-0.12 0-0.36 0.02-0.23 0.02-0.35 0-0.4-0.06-1.7-0.19-0.02-0.57-0.06-0.38-0.04-0.38-0.43 0-0.18 0.12-0.31 0.11-0.13 0.29-0.13 0.12 0 0.52 0.04 0-0.1-0.02-0.35-0.01-0.21-0.01-0.32 0-0.19 0.13-0.31 0.12-0.12 0.29-0.12 0.45 0 0.45 0.82v0.27q0.18-0.03 0.3-0.03 0.35 0 0.48 0.05 0.24 0.09 0.24 0.4 0 0.19-0.12 0.31-0.12 0.13-0.3 0.13z" class="s9"></path>
		<path d="m54.64 55.24q-0.72 0-1.18-0.38-0.51-0.41-0.51-1.17 0-0.83 0.4-1.41 0.45-0.63 1.21-0.63 0.52 0 0.88 0.18 0.45 0.25 0.45 0.76 0 0.36-0.38 0.64-0.16 0.13-0.68 0.38l-1.01 0.48q0.14 0.17 0.35 0.26 0.21 0.09 0.47 0.09 0.41 0 0.69-0.18 0.25-0.17 0.4-0.17 0.31 0 0.31 0.34 0 0.38-0.5 0.61-0.43 0.2-0.9 0.2zm-0.09-2.79q-0.27 0-0.48 0.2-0.2 0.2-0.32 0.61 0.35-0.16 0.69-0.32 0.41-0.2 0.64-0.37-0.2-0.12-0.53-0.12z" class="s9"></path>
		<path d="m61.34 55.29q-0.9 0-1.53-0.56-0.67-0.6-0.67-1.55 0-1.12 0.64-2.04 0.73-1.04 1.82-1.04c0.74 0 1.23 0.17 1.58 0.53q0.53 0.52 0.53 1.58 0 1.12-0.59 2.03-0.68 1.05-1.78 1.05zm0.26-4.3q-0.67 0-1.15 0.72-0.45 0.66-0.45 1.47 0 0.54 0.39 0.88 0.37 0.33 0.95 0.33 0.66 0 1.11-0.7 0.4-0.65 0.4-1.48 0-0.69-0.28-0.96-0.27-0.26-0.97-0.26z" class="s9"></path>
		<path d="m66.6 55.32q-0.38 0-0.42-0.4-0.04-0.34-0.08-0.68-0.05-0.36-0.05-0.68 0-0.09 0.01-0.29 0.01-0.21 0.01-0.3 0-0.02 0.01-0.12 0-0.09 0-0.15 0-0.27-0.12-0.27-0.26 0-0.51 0.37-0.25 0.35-0.38 0.91-0.01 0.11-0.03 0.3-0.02 0.15-0.02 0.3 0 0.09-0.02 0.28-0.02 0.19-0.02 0.29 0 0.19-0.11 0.31-0.12 0.13-0.3 0.13-0.19 0-0.3-0.13-0.13-0.12-0.13-0.31 0-0.1-0.01-0.29-0.02-0.18-0.02-0.28 0-0.32 0.04-0.89 0.04-0.58 0.04-0.9 0-0.1 0-0.3-0.02-0.2-0.02-0.29 0-0.2 0.12-0.32 0.13-0.12 0.3-0.12 0.41 0 0.43 0.52v0.04q0.45-0.49 0.94-0.49 0.57 0 0.78 0.52 0.15 0.35 0.15 1.04v0.24q0 0.15 0 0.21 0 0.26 0.06 0.67 0.07 0.39 0.07 0.65 0 0.19-0.13 0.31-0.12 0.12-0.29 0.12z" class="s9"></path>
		<path d="m68.39 54.6q0 0.63-0.42 0.63-0.18 0-0.3-0.13-0.12-0.12-0.12-0.32v-4.55q0-0.19 0.13-0.31 0.12-0.12 0.3-0.12 0.17 0 0.29 0.12 0.12 0.12 0.12 0.31z" class="s9"></path>
		<path d="m70.1 53.54q0 0.19 0.01 0.6 0.01 0.42 0.01 0.61 0 0.18-0.12 0.31-0.11 0.12-0.3 0.12-0.18 0-0.29-0.12-0.12-0.12-0.12-0.31 0-0.19-0.01-0.61-0.02-0.41-0.02-0.6 0-0.29 0.03-0.73 0.04-0.44 0.04-0.73 0-0.2 0.11-0.32 0.12-0.12 0.3-0.12 0.18 0 0.3 0.12 0.12 0.12 0.12 0.32 0 0.29-0.03 0.73-0.03 0.44-0.03 0.73zm-0.26-2.41q-0.19 0-0.33-0.14-0.15-0.14-0.15-0.35 0-0.2 0.15-0.34 0.14-0.14 0.33-0.14 0.2 0 0.33 0.14 0.15 0.14 0.15 0.34 0 0.21-0.15 0.35-0.13 0.14-0.33 0.14z" class="s9"></path>
		<path d="m73.27 55.32q-0.37 0-0.41-0.4-0.04-0.34-0.09-0.68-0.04-0.36-0.04-0.68 0-0.09 0.01-0.29 0.01-0.21 0.01-0.3 0-0.02 0.01-0.12 0-0.09 0-0.15 0-0.27-0.12-0.27-0.26 0-0.5 0.37-0.25 0.35-0.4 0.91-0.01 0.11-0.02 0.3-0.02 0.15-0.02 0.3 0 0.09-0.02 0.28-0.02 0.19-0.02 0.29 0 0.19-0.12 0.31-0.12 0.13-0.3 0.13-0.18 0-0.3-0.13-0.11-0.12-0.11-0.31 0-0.1-0.03-0.29-0.01-0.18-0.01-0.28 0-0.32 0.04-0.89 0.04-0.58 0.04-0.9 0-0.1-0.01-0.3-0.01-0.2-0.01-0.29 0-0.2 0.13-0.32 0.12-0.12 0.3-0.12 0.39 0 0.42 0.52v0.04q0.44-0.49 0.93-0.49 0.57 0 0.79 0.52 0.15 0.35 0.15 1.04v0.24q-0.01 0.15-0.01 0.21 0 0.26 0.07 0.67 0.07 0.39 0.07 0.65 0 0.19-0.12 0.31-0.13 0.12-0.31 0.12z" class="s9"></path>
		<path d="m75.66 55.24q-0.72 0-1.18-0.38-0.51-0.41-0.51-1.17 0-0.83 0.4-1.41 0.44-0.63 1.2-0.63 0.53 0 0.88 0.18 0.46 0.25 0.46 0.76 0 0.36-0.38 0.64-0.16 0.13-0.68 0.38l-1.01 0.48q0.14 0.17 0.35 0.26 0.2 0.09 0.47 0.09 0.4 0 0.69-0.18 0.25-0.17 0.4-0.17 0.31 0 0.31 0.34 0 0.38-0.51 0.61-0.42 0.2-0.89 0.2zm-0.09-2.79q-0.28 0-0.48 0.2-0.2 0.2-0.32 0.61 0.34-0.16 0.68-0.32 0.41-0.2 0.65-0.37-0.2-0.12-0.53-0.12z" class="s9"></path>
		<path d="m83.89 51.14q-0.23 0-0.73-0.03-0.48-0.04-0.73-0.04 0 0.38 0.08 1.34 0.06 0.85 0.06 1.34 0 0.12 0.02 0.34 0.02 0.22 0.02 0.32 0 0.25-0.1 0.45-0.12 0.25-0.35 0.25-0.16 0-0.29-0.11-0.15-0.13-0.15-0.32 0-0.05 0.02-0.15 0.01-0.09 0.01-0.14 0-0.15-0.01-0.45-0.02-0.31-0.02-0.47 0-0.44-0.07-1.19-0.07-0.87-0.08-1.19h-0.16q-0.67 0-1.07-0.11-0.33-0.09-0.33-0.43 0-0.17 0.1-0.3 0.13-0.17 0.33-0.15 0.11 0.01 0.49 0.06 0.29 0.04 0.48 0.04 0.19 0 0.55-0.01 0.37-0.01 0.56-0.01 0.23 0 0.69 0.04 0.46 0.03 0.68 0.03 0.18 0 0.31 0.12 0.12 0.14 0.12 0.32 0 0.19-0.12 0.32-0.13 0.13-0.31 0.13z" class="s9"></path>
		<path d="m85.84 55.28q-0.56 0-0.96-0.42-0.44-0.45-0.46-1.22-0.02-0.72 0.36-1.29 0.46-0.68 1.28-0.68 0.61 0 0.96 0.53 0.33 0.48 0.33 1.17 0 0.77-0.38 1.31-0.42 0.6-1.13 0.6zm0.18-2.74q-0.37 0-0.59 0.37-0.17 0.31-0.17 0.73 0 0.4 0.2 0.61 0.16 0.16 0.38 0.16 0.27 0 0.45-0.19 0.23-0.23 0.24-0.61 0.04-1.06-0.51-1.07z" class="s9"></path>
		<path d="m90.86 52.3q-0.33 0.75-1.04 2.35-0.39 0.86-0.6 1.42-0.05 0.21-0.2 0.61-0.11 0.31-0.38 0.31-0.18 0-0.31-0.12-0.12-0.12-0.12-0.3 0-0.31 0.64-1.82-0.34-0.71-1.06-2.1-0.07-0.12-0.15-0.25-0.08-0.16-0.08-0.28 0-0.18 0.13-0.31 0.13-0.14 0.3-0.14 0.2 0 0.32 0.16 0.43 0.62 0.99 1.87 0.33-0.78 0.4-0.94 0.21-0.48 0.42-0.86 0.13-0.24 0.36-0.24 0.17 0 0.3 0.13 0.13 0.12 0.13 0.31 0 0.09-0.05 0.2z" class="s9"></path>
		<path d="m95.38 55.29q-0.77 0-1.21-0.38-0.37-0.3-0.37-0.71 0-0.21 0.11-0.34 0.12-0.14 0.33-0.14 0.27 0 0.39 0.3 0.17 0.41 0.78 0.41 0.52 0 1.01-0.25 0.51-0.25 0.51-0.56 0-0.41-0.32-0.54-0.23-0.1-0.9-0.11-0.52-0.02-0.94-0.22-0.56-0.27-0.55-0.78 0.02-0.64 0.63-1.18 0.62-0.53 1.37-0.53 0.3 0 0.73 0.15 0.54 0.18 0.54 0.42 0 0.17-0.1 0.31-0.13 0.15-0.32 0.15-0.14 0-0.42-0.08-0.29-0.06-0.43-0.06-0.39 0-0.74 0.21-0.36 0.2-0.36 0.44 0 0.13 0.1 0.21 0.12 0.07 0.34 0.11 0.39 0.02 0.77 0.04 0.67 0.06 1.06 0.42 0.43 0.39 0.43 1.09 0 0.84-0.89 1.29-0.68 0.33-1.55 0.33z" class="s9"></path>
		<path d="m100.39 52.44q-0.06 0-0.15-0.01-0.08 0-0.15 0-0.12 0-0.28 0.02 0.05 1.33 0.05 1.74 0 0.05 0 0.16 0.01 0.12 0.01 0.19 0 0.76-0.44 0.76-0.17 0-0.29-0.12-0.13-0.11-0.13-0.29 0-0.12 0.01-0.36 0.01-0.23 0.01-0.35 0-0.4-0.05-1.7-0.2-0.02-0.58-0.06-0.38-0.04-0.38-0.43 0-0.18 0.12-0.31 0.11-0.13 0.3-0.13 0.11 0 0.51 0.04 0-0.1-0.02-0.35 0-0.21 0-0.32 0-0.19 0.12-0.31 0.12-0.12 0.3-0.12 0.44 0 0.44 0.82v0.27q0.19-0.03 0.3-0.03 0.35 0 0.48 0.05 0.24 0.09 0.24 0.4 0 0.19-0.12 0.31-0.11 0.13-0.3 0.13z" class="s9"></path>
		<path d="m102.43 55.28q-0.57 0-0.97-0.42-0.44-0.45-0.46-1.22-0.02-0.72 0.37-1.29 0.46-0.68 1.27-0.68 0.61 0 0.97 0.53 0.31 0.48 0.31 1.17 0 0.77-0.37 1.31-0.42 0.6-1.12 0.6zm0.18-2.74q-0.38 0-0.59 0.37-0.18 0.31-0.18 0.73 0 0.4 0.2 0.61 0.17 0.16 0.39 0.16 0.26 0 0.45-0.19 0.22-0.23 0.24-0.61 0.04-1.06-0.51-1.07z" class="s9"></path>
		<path d="m106.98 52.71q-0.03 0.51-0.43 0.51-0.38 0-0.38-0.43l-0.02-0.34q-0.68 0.13-0.97 0.77l0.01 1.65q0 0.19-0.13 0.31-0.11 0.12-0.29 0.12-0.19 0-0.29-0.12-0.1-0.13-0.1-0.31v-2.15q0-0.11 0-0.31 0.01-0.2 0.01-0.3 0-0.19 0.1-0.31 0.1-0.12 0.29-0.12 0.34 0 0.4 0.38 0.53-0.44 1.19-0.44 0.61 0 0.61 0.87 0 0.17 0 0.22z" class="s9"></path>
		<path d="m108.94 55.24q-0.73 0-1.18-0.38-0.51-0.41-0.51-1.17 0-0.83 0.4-1.41 0.45-0.63 1.21-0.63 0.52 0 0.87 0.18 0.46 0.25 0.46 0.76 0 0.36-0.37 0.64-0.17 0.13-0.68 0.38l-1.03 0.48q0.15 0.17 0.35 0.26 0.21 0.09 0.48 0.09 0.41 0 0.69-0.18 0.25-0.17 0.4-0.17 0.31 0 0.31 0.34 0 0.38-0.5 0.61-0.43 0.2-0.9 0.2zm-0.08-2.79q-0.29 0-0.48 0.2-0.2 0.2-0.32 0.61 0.34-0.16 0.68-0.32 0.41-0.2 0.65-0.37-0.21-0.12-0.53-0.12z" class="s9"></path>
	</g>
</svg>